PathFileType	4	(X/Y/Z)	/Users/itak/Documents/Research/Walk-IL/dataset/trc/00421_00012.trc
DataRate	CameraRate	NumFrames	NumMarkers	Units	OrigDataRate	OrigDataStartFrame	OrigNumFrames
100.000000	100.000000	4	53	mm	100.000000	141	564
Frame#	Time	RPSI			LPSI			L3			STRN			T10			C7			CLAV			RBAK			LBAK			LSHO			LUPA			LAEL			LAOL			LWTS			LWPS			LFRA			LIFD			LHPS			LHTS			RSHO			RUPA			RAEL			RAOL			RWTS			RWPS			RFRA			RIFD			RHPS			RBHD			LFHD			RFHD			LBHD			LHIP			RHIP			RASI			LASI			LKNE			LTHI			LANK			LTIP			LTOE			LMT1			LMT5			LHEE			RKNE			RTHI			RANK			RTIP			RTOE			RMT1			RMT5			RHEE			RHTS			
		X1	Y1	Z1	X2	Y2	Z2	X3	Y3	Z3	X4	Y4	Z4	X5	Y5	Z5	X6	Y6	Z6	X7	Y7	Z7	X8	Y8	Z8	X9	Y9	Z9	X10	Y10	Z10	X11	Y11	Z11	X12	Y12	Z12	X13	Y13	Z13	X14	Y14	Z14	X15	Y15	Z15	X16	Y16	Z16	X17	Y17	Z17	X18	Y18	Z18	X19	Y19	Z19	X20	Y20	Z20	X21	Y21	Z21	X22	Y22	Z22	X23	Y23	Z23	X24	Y24	Z24	X25	Y25	Z25	X26	Y26	Z26	X27	Y27	Z27	X28	Y28	Z28	X29	Y29	Z29	X30	Y30	Z30	X31	Y31	Z31	X32	Y32	Z32	X33	Y33	Z33	X34	Y34	Z34	X35	Y35	Z35	X36	Y36	Z36	X37	Y37	Z37	X38	Y38	Z38	X39	Y39	Z39	X40	Y40	Z40	X41	Y41	Z41	X42	Y42	Z42	X43	Y43	Z43	X44	Y44	Z44	X45	Y45	Z45	X46	Y46	Z46	X47	Y47	Z47	X48	Y48	Z48	X49	Y49	Z49	X50	Y50	Z50	X51	Y51	Z51	X52	Y52	Z52	X53	Y53	Z53	

142	1.41	-1556.94384765625	994.1885375976562	-529.9195556640625	-1563.068969726562	983.8173217773438	-661.1045532226562	-1558.057373046875	1058.623168945312	-594.5289306640625	-1324.256591796875	1214.796752929688	-590.4970703125	-1560.600463867188	1158.317749023438	-597.4310913085938	-1536.841430664062	1409.442260742188	-605.4168701171875	-1379.583129882812	1332.887451171875	-592.2510375976562	-1574.826782226562	1261.3798828125	-538.1915893554688	-1541.468139648438	1371.684448242188	-711.5950317382812	-1451.849975585938	1391.408325195312	-754.7329711914062	-1453.482177734375	1274.557495117188	-828.4061279296875	-1407.847900390625	1078.710571289062	-842.2459106445312	-1469.382934570312	1053.541259765625	-789.4652709960938	-1305.329467773438	871.0198974609375	-774.6471557617188	-1341.651489257812	852.8935546875	-845.2430419921875	-1379.206420898438	975.9271240234375	-844.8245849609375	-1293.326538085938	692.5172119140625	-774.1783447265625	-1322.762817382812	769.6436157226562	-832.6802978515625	-1277.396484375	775.9360961914062	-788.2531127929688	-1479.613403320312	1388.826538085938	-443.1062927246094	-1486.347900390625	1322.369384765625	-383.6600036621094	-1449.501953125	1059.763793945312	-347.45654296875	-1467.183837890625	1050.441650390625	-437.1940612792969	-1299.40869140625	858.1600952148438	-375.3511047363281	-1344.029052734375	841.6179809570312	-318.3453674316406	-1417.850708007812	998.028076171875	-333.7328796386719	-1288.04296875	684.4193115234375	-377.7321472167969	-1331.239013671875	753.2590942382812	-319.1140441894531	-1496.255249023438	1604.623657226562	-515.8179931640625	-1348.027954101562	1601.278442382812	-650.0964965820312	-1363.629150390625	1607.09521484375	-528.2078857421875	-1494.803100585938	1596.68603515625	-678.4373779296875	-1476.88671875	968.01953125	-774.604736328125	-1473.828369140625	969.9053955078125	-415.5157775878906	-1341.702758789062	973.4718017578125	-471.4725952148438	-1362.842651367188	963.8901977539062	-734.1362915039062	-1440.442138671875	473.0845031738281	-739.088134765625	-1444.552978515625	614.7730102539062	-755.1647338867188	-1550.613403320312	42.81049346923828	-683.6182861328125	-1496.506469726562	243.2239074707031	-723.4830322265625	-1335.102294921875	46.29451751708984	-621.5494384765625	-1416.671752929688	46.19744491577148	-591.2113037109375	-1423.409790039062	41.22429656982422	-696.494384765625	-1586.820922851562	40.63894271850586	-625.7131958007812	-1448.246704101562	478.4304504394531	-425.5469970703125	-1402.622192382812	741.3698120117188	-412.7879333496094	-1501.456665039062	58.09855651855469	-453.5825500488281	-1441.874145507812	351.8721008300781	-439.9805603027344	-1323.419189453125	41.19872665405273	-520.3217163085938	-1400.11083984375	44.5457878112793	-547.5638427734375	-1416.91943359375	49.40165328979492	-450.2693786621094	-1575.406982421875	44.94480133056641	-505.3898010253906	-1275.400146484375	753.019775390625	-357.9834899902344	
143	1.42	-1556.196166992188	994.2023315429688	-530.3009643554688	-1562.53564453125	983.7776489257812	-661.525634765625	-1557.42578125	1058.583984375	-594.9238891601562	-1323.498291015625	1214.710815429688	-591.0760498046875	-1560.038696289062	1158.283447265625	-597.8589477539062	-1536.066040039062	1409.397827148438	-605.8367309570312	-1378.756469726562	1332.819458007812	-592.77197265625	-1574.05029296875	1261.3623046875	-538.563232421875	-1540.790649414062	1371.636596679688	-712.0157470703125	-1451.157958984375	1391.306030273438	-755.1978149414062	-1452.941040039062	1274.467529296875	-828.901611328125	-1407.297119140625	1078.604248046875	-842.7839965820312	-1468.827758789062	1053.472045898438	-789.97216796875	-1304.90234375	870.8359375	-775.3047485351562	-1341.210327148438	852.755859375	-845.8829956054688	-1378.762939453125	975.8111572265625	-845.41455078125	-1293.505126953125	692.19482421875	-775.1583862304688	-1322.464965820312	769.5259399414062	-833.4051513671875	-1277.064331054688	775.8187255859375	-789.0167846679688	-1478.752197265625	1388.753662109375	-443.5676879882812	-1485.508911132812	1322.305053710938	-384.1150207519531	-1448.7138671875	1059.675170898438	-347.9447631835938	-1466.38671875	1050.382446289062	-437.6667785644531	-1298.374145507812	858.2494506835938	-375.8669738769531	-1343.029907226562	841.5013427734375	-318.9620971679688	-1417.061279296875	997.9603881835938	-334.2472534179688	-1286.78125	684.5083618164062	-378.6285400390625	-1330.096435546875	753.1470336914062	-319.905029296875	-1495.407348632812	1604.504760742188	-516.2483520507812	-1347.165771484375	1601.161376953125	-650.5258178710938	-1362.68359375	1606.976440429688	-528.6510009765625	-1493.999267578125	1596.6689453125	-678.8827514648438	-1476.385498046875	967.93017578125	-775.0759887695312	-1473.115844726562	969.9103393554688	-415.9792175292969	-1340.970458984375	973.3614501953125	-472.0026550292969	-1362.515991210938	963.7288208007812	-734.6885986328125	-1439.382690429688	472.8885803222656	-739.0025634765625	-1443.72265625	614.537841796875	-755.328369140625	-1550.680419921875	42.8719596862793	-683.6419677734375	-1495.796020507812	243.0940551757812	-723.3812255859375	-1335.172485351562	46.33119583129883	-621.4703369140625	-1416.75390625	46.12912368774414	-591.1873168945312	-1423.432373046875	41.30224609375	-696.4297485351562	-1586.86767578125	40.62867736816406	-625.6984252929688	-1447.836059570312	478.4263305664062	-425.8025512695312	-1402.016357421875	741.3421630859375	-413.2152404785156	-1501.460205078125	58.12588500976562	-453.5892028808594	-1441.513427734375	351.849365234375	-440.1512756347656	-1323.449829101562	41.23911666870117	-520.3023071289062	-1400.122924804688	44.557373046875	-547.5491943359375	-1416.902587890625	49.40813827514648	-450.2284545898438	-1575.415161132812	44.92746353149414	-505.3959655761719	-1274.100708007812	753.0886840820312	-358.6513061523438	
144	1.43	-1555.419921875	994.226318359375	-530.6939697265625	-1561.962524414062	983.7368774414062	-661.9525756835938	-1556.75390625	1058.5458984375	-595.3304443359375	-1322.692016601562	1214.613403320312	-591.679931640625	-1559.423706054688	1158.251342773438	-598.299560546875	-1535.241577148438	1409.352416992188	-606.278076171875	-1377.902954101562	1332.741821289062	-593.3260498046875	-1573.224487304688	1261.340576171875	-538.9603881835938	-1540.053955078125	1371.596801757812	-712.4539184570312	-1450.430908203125	1391.20263671875	-755.6910400390625	-1452.373046875	1274.377319335938	-829.4256591796875	-1406.716186523438	1078.489135742188	-843.34228515625	-1468.258666992188	1053.4052734375	-790.5068359375	-1304.427856445312	870.65673828125	-775.9637451171875	-1340.771484375	852.6202392578125	-846.53955078125	-1378.295654296875	975.6918334960938	-846.0206909179688	-1293.332641601562	691.9223022460938	-775.9940795898438	-1322.105590820312	769.4066772460938	-834.1422119140625	-1276.650512695312	775.7214965820312	-789.786376953125	-1477.843139648438	1388.66943359375	-444.0552673339844	-1484.624755859375	1322.2314453125	-384.5991516113281	-1447.871459960938	1059.593017578125	-348.4409790039062	-1465.554809570312	1050.31689453125	-438.1603088378906	-1297.252319335938	858.339111328125	-376.3754577636719	-1341.973388671875	841.3944091796875	-319.5809936523438	-1416.195190429688	997.8912963867188	-334.7645263671875	-1285.461547851562	684.5971069335938	-379.5037536621094	-1328.874877929688	753.0350341796875	-320.6858520507812	-1494.53369140625	1604.374877929688	-516.701904296875	-1346.282470703125	1601.050415039062	-650.9801635742188	-1361.71435546875	1606.8564453125	-529.121826171875	-1493.153076171875	1596.638305664062	-679.3484497070312	-1475.882690429688	967.830078125	-775.5675659179688	-1472.367797851562	969.9200439453125	-416.4665832519531	-1340.257446289062	973.2320556640625	-472.5875244140625	-1362.184448242188	963.5438842773438	-735.2933959960938	-1438.266235351562	472.6784973144531	-738.9019165039062	-1442.896606445312	614.30126953125	-755.5114135742188	-1550.750854492188	42.93810272216797	-683.6674194335938	-1495.043701171875	242.9537506103516	-723.2627563476562	-1335.257568359375	46.37849044799805	-621.37744140625	-1416.81591796875	46.05394744873047	-591.1407470703125	-1423.462036132812	41.38056564331055	-696.3495483398438	-1586.918579101562	40.61605453491211	-625.6828002929688	-1447.346313476562	478.4097900390625	-426.0794982910156	-1401.3720703125	741.3584594726562	-413.6576538085938	-1501.463745117188	58.15690994262695	-453.593994140625	-1441.125	351.8162536621094	-440.3541564941406	-1323.489990234375	41.28804397583008	-520.2769165039062	-1400.1435546875	44.57632446289062	-547.5296630859375	-1416.875	49.42018890380859	-450.1665954589844	-1575.421020507812	44.90476608276367	-505.400146484375	-1272.782470703125	753.1668701171875	-359.3253173828125	
145	1.44	-1554.622436523438	994.2581787109375	-531.1008911132812	-1561.352294921875	983.6906127929688	-662.3849487304688	-1556.043334960938	1058.509521484375	-595.7484741210938	-1321.843139648438	1214.500854492188	-592.3126831054688	-1558.745239257812	1158.223388671875	-598.7489624023438	-1534.363403320312	1409.307739257812	-606.7408447265625	-1377.024658203125	1332.6513671875	-593.9134521484375	-1572.352783203125	1261.31396484375	-539.3867797851562	-1539.258911132812	1371.566162109375	-712.9107666015625	-1449.670043945312	1391.099731445312	-756.2146606445312	-1451.776000976562	1274.287353515625	-829.9778442382812	-1406.110961914062	1078.3681640625	-843.9225463867188	-1467.677368164062	1053.340698242188	-791.0723266601562	-1303.876708984375	870.49169921875	-776.6204833984375	-1340.33740234375	852.4896850585938	-847.21240234375	-1377.804077148438	975.5704345703125	-846.6421508789062	-1292.812744140625	691.7181396484375	-776.7017822265625	-1321.68896484375	769.287353515625	-834.8915405273438	-1276.171020507812	775.631103515625	-790.5507202148438	-1476.88037109375	1388.575317382812	-444.5690612792969	-1483.689697265625	1322.148803710938	-385.1136474609375	-1446.9765625	1059.52392578125	-348.9404907226562	-1464.690185546875	1050.245727539062	-438.6740417480469	-1296.060668945312	858.420166015625	-376.8811950683594	-1340.860229492188	841.3017578125	-320.2011108398438	-1415.247924804688	997.8197631835938	-335.283935546875	-1284.091064453125	684.6814575195312	-380.3522338867188	-1327.573486328125	752.9281005859375	-321.446533203125	-1493.623413085938	1604.233032226562	-517.1732788085938	-1345.375366210938	1600.948852539062	-651.4612426757812	-1360.721557617188	1606.735229492188	-529.61962890625	-1492.263671875	1596.597290039062	-679.832275390625	-1475.381225585938	967.717041015625	-776.0808715820312	-1471.576049804688	969.9326171875	-416.9762573242188	-1339.53466796875	973.0840454101562	-473.2218017578125	-1361.8310546875	963.3323364257812	-735.93798828125	-1437.094970703125	472.457275390625	-738.7860717773438	-1442.062744140625	614.0595092773438	-755.7071533203125	-1550.81787109375	43.00432968139648	-683.6845092773438	-1494.2490234375	242.8000793457031	-723.1282958984375	-1335.355834960938	46.43581390380859	-621.2694091796875	-1416.821044921875	45.98385238647461	-591.0574340820312	-1423.49609375	41.4581413269043	-696.2569580078125	-1586.971069335938	40.60074234008789	-625.668212890625	-1446.767578125	478.3802490234375	-426.3836364746094	-1400.675170898438	741.413818359375	-414.1289672851562	-1501.466552734375	58.18906402587891	-453.5941162109375	-1440.702758789062	351.7730102539062	-440.59130859375	-1323.542358398438	41.34334945678711	-520.2434692382812	-1400.174682617188	44.60438537597656	-547.5048828125	-1416.838134765625	49.43805694580078	-450.0848083496094	-1575.423461914062	44.8765983581543	-505.4009094238281	-1271.50244140625	753.2427978515625	-360.02099609375	
